<svg xmlns="http://www.w3.org/2000/svg" width="1920" height="1080" viewBox="0 0 1920 1080" role="img" aria-label="Modernes Großraumbüro">
  <defs>
    <linearGradient id="bg" x1="0" y1="0" x2="0" y2="1">
      <stop offset="0%" stop-color="#d8edf9"/>
      <stop offset="65%" stop-color="#c8e2f3"/>
      <stop offset="100%" stop-color="#b5d3e6"/>
    </linearGradient>
    <linearGradient id="glass" x1="0" y1="0" x2="1" y2="1">
      <stop offset="0%" stop-color="#eaf9ff"/>
      <stop offset="100%" stop-color="#b6d6ea"/>
    </linearGradient>
  </defs>

  <rect width="1920" height="1080" fill="url(#bg)"/>
  <rect x="0" y="0" width="1920" height="600" fill="#eaf4fb"/>

  <g opacity="0.72">
    <rect x="120" y="90" width="530" height="330" rx="18" fill="url(#glass)"/>
    <rect x="720" y="90" width="520" height="330" rx="18" fill="url(#glass)"/>
    <rect x="1310" y="90" width="490" height="330" rx="18" fill="url(#glass)"/>
  </g>

  <rect y="600" width="1920" height="480" fill="#d5c3ac"/>

  <g>
    <rect x="80" y="650" width="520" height="210" rx="18" fill="#f2f6fa"/>
    <rect x="700" y="650" width="520" height="210" rx="18" fill="#f2f6fa"/>
    <rect x="1320" y="650" width="520" height="210" rx="18" fill="#f2f6fa"/>

    <rect x="130" y="610" width="180" height="120" rx="12" fill="#233649"/>
    <rect x="760" y="610" width="180" height="120" rx="12" fill="#233649"/>
    <rect x="1380" y="610" width="180" height="120" rx="12" fill="#233649"/>

    <rect x="360" y="610" width="160" height="110" rx="12" fill="#273a4f"/>
    <rect x="990" y="610" width="160" height="110" rx="12" fill="#273a4f"/>
    <rect x="1610" y="610" width="160" height="110" rx="12" fill="#273a4f"/>
  </g>

  <g opacity="0.5">
    <rect x="0" y="920" width="1920" height="160" fill="#b8a286"/>
  </g>
</svg>
