<svg xmlns="http://www.w3.org/2000/svg" width="1920" height="1080" viewBox="0 0 1920 1080" role="img" aria-label="Schickes Einzelbüro">
  <defs>
    <linearGradient id="wall" x1="0" y1="0" x2="0" y2="1">
      <stop offset="0%" stop-color="#f6f4ef"/>
      <stop offset="100%" stop-color="#e7e0d3"/>
    </linearGradient>
    <linearGradient id="floor" x1="0" y1="0" x2="1" y2="1">
      <stop offset="0%" stop-color="#8a6b4f"/>
      <stop offset="100%" stop-color="#6d513b"/>
    </linearGradient>
    <linearGradient id="window" x1="0" y1="0" x2="0" y2="1">
      <stop offset="0%" stop-color="#dff2ff"/>
      <stop offset="100%" stop-color="#b6d9ee"/>
    </linearGradient>
  </defs>

  <rect width="1920" height="1080" fill="url(#wall)"/>
  <rect y="690" width="1920" height="390" fill="url(#floor)"/>

  <rect x="150" y="120" width="610" height="390" rx="18" fill="url(#window)"/>
  <rect x="170" y="140" width="570" height="350" rx="12" fill="#d2ebfa"/>

  <rect x="980" y="210" width="730" height="460" rx="24" fill="#f8f6f2"/>
  <rect x="1020" y="250" width="650" height="380" rx="18" fill="#efebe3"/>

  <rect x="350" y="650" width="1220" height="220" rx="26" fill="#e3d4c1"/>
  <rect x="420" y="600" width="560" height="130" rx="14" fill="#2b3f58"/>
  <rect x="1030" y="600" width="340" height="130" rx="14" fill="#2f425b"/>

  <circle cx="1540" cy="740" r="90" fill="#d9c4a6"/>
  <rect x="1430" y="790" width="220" height="18" rx="9" fill="#c5ac8b"/>

  <g opacity="0.7">
    <rect x="1260" y="100" width="140" height="80" rx="10" fill="#c8b79b"/>
    <rect x="1430" y="100" width="140" height="80" rx="10" fill="#c8b79b"/>
    <rect x="1600" y="100" width="140" height="80" rx="10" fill="#c8b79b"/>
  </g>
</svg>
